<svg id = "forca-svg" width = "200" height = "200" xmlns="http://www.w3.org/2000/svg">
    <g id="forca-1">
        <title>Forca 1</title>
        <path transform="rotate(-45.0419 48.6772 55.8438)" stroke="null" id="svg_1" d="m15.71374,48.9367l65.92684,0l0,13.81421l-65.92684,0l0,-13.81421z" opacity="undefined" fill="#b4641e"/>
        <rect transform="rotate(-0.0421115 91.9236 191.974)" stroke="null" id="svg_3" height="4.49918" width="169.28462" y="189.72433" x="7.28129" fill="#8c4e19"/>
        <rect transform="rotate(-89.9215 24.7799 99.6644)" stroke="null" id="svg_4" height="16.7336" width="180.32428" y="91.29763" x="-65.38225" fill="#b4641e"/>
        <path transform="rotate(-45.0419 66.0416 38.454)" stroke="null" id="svg_6" d="m56.23885,31.54693l19.60541,0l0,13.8142l-19.60541,0l0,-13.8142z" opacity="undefined" fill="#7f4b26"/>
        <rect transform="rotate(-0.142763 68.1833 30.1675)" stroke="null" id="svg_2" height="17.04569" width="124.985" y="21.64461" x="5.69078" fill="#b4641e"/>
        <path transform="rotate(-89.7668 14.5432 30.3067)" stroke="null" id="svg_11" d="m6.07277,28.39651l16.9408,0l0,3.82039l-16.9408,0l0,-3.82039z" opacity="undefined" fill="#7f4b26"/>
        <rect id="svg_13" height="13.99992" width="1.33333" y="38.66585" x="118.66538" stroke="null" fill="#ffd259"/>
        <rect transform="rotate(38.7449 117.607 54.3356)" stroke="null" id="svg_22" height="6.00857" width="1.25" y="51.33128" x="116.98158" fill="#ffd259"/>
        <rect transform="rotate(-38.757 121.107 54.5856)" stroke="null" id="svg_23" height="6.00857" width="1.25" y="51.58128" x="120.48157" fill="#ffd259"/>
        <path stroke="null" id="svg_24" d="m114.54457,58.87968l0,0c0,-2.76142 2.12664,-4.99999 4.74999,-4.99999l0,0c1.25978,0 2.46795,0.52678 3.35875,1.46446c0.8908,0.93768 1.39124,2.20945 1.39124,3.53553l0,0c0,2.76142 -2.12664,4.99999 -4.74999,4.99999l0,0c-2.62335,0 -4.74999,-2.23857 -4.74999,-4.99999zm2.375,0l0,0c0,1.38071 1.06332,2.49999 2.375,2.49999c1.31167,0 2.375,-1.11929 2.375,-2.49999c0,-1.38071 -1.06332,-2.49999 -2.375,-2.49999l0,0c-1.31167,0 -2.375,1.11929 -2.375,2.49999z" stroke-width="0" fill="#ffd259"/>
        <path transform="rotate(-25 119.421 50.1201)" id="svg_29" d="m121.92081,49.53679c0,0.16108 -1.11929,0.29167 -2.49999,0.29167m2.49999,-0.29167l0,0c0,0.16108 -1.11929,0.29167 -2.49999,0.29167c-1.38071,0 -2.49999,-0.13058 -2.49999,-0.29167m0,0l0,0c0,-0.16108 1.11928,-0.29167 2.49999,-0.29167c1.38071,0 2.49999,0.13058 2.49999,0.29167l0,1.16667c0,0.16108 -1.11929,0.29167 -2.49999,0.29167c-1.38071,0 -2.49999,-0.13058 -2.49999,-0.29167l0,-1.16667z" stroke-width="0" stroke="null" fill="#ffd259"/>
        <path transform="rotate(-25 119.421 47.875)" id="svg_31" d="m121.92081,47.29167c0,0.16108 -1.11929,0.29167 -2.49999,0.29167m2.49999,-0.29167l0,0c0,0.16108 -1.11929,0.29167 -2.49999,0.29167c-1.38071,0 -2.5,-0.13059 -2.5,-0.29167m0,0l0,0c0,-0.16108 1.11929,-0.29167 2.5,-0.29167c1.3807,0 2.49999,0.13059 2.49999,0.29167l0,1.16667c0,0.16108 -1.11929,0.29166 -2.49999,0.29166c-1.38071,0 -2.5,-0.13058 -2.5,-0.29166l0,-1.16667z" stroke-width="0" stroke="null" fill="#ffd259"/>
        <path transform="rotate(-25 119.421 45.875)" id="svg_32" d="m121.92081,45.29167c0,0.16108 -1.11929,0.29167 -2.49999,0.29167m2.49999,-0.29167l0,0c0,0.16108 -1.11929,0.29167 -2.49999,0.29167c-1.38071,0 -2.5,-0.13059 -2.5,-0.29167m0,0l0,0c0,-0.16108 1.11929,-0.29167 2.5,-0.29167c1.3807,0 2.49999,0.13059 2.49999,0.29167l0,1.16667c0,0.16108 -1.11929,0.29166 -2.49999,0.29166c-1.38071,0 -2.5,-0.13058 -2.5,-0.29166l0,-1.16667z" stroke-width="0" stroke="null" fill="#ffd259"/>
        <ellipse stroke="#000" stroke-width="0" ry="8.66658" rx="8.66658" id="svg_7" cy="52.08166" cx="119.5" fill="#3060ff"/>
        <rect stroke="#000" id="svg_8" height="38.33331" width="14.66666" y="62.33322" x="111.99985" stroke-width="0" fill="#3060ff"/>
    </g>
</svg>